<svg xmlns="http://www.w3.org/2000/svg" viewBox="0 0 128 90.72"><title>new device</title><g id="Layer_2" data-name="Layer 2"><g id="Artwork"><path id="new_device" data-name="new device" d="M94.16,76.55a.85.85,0,0,1,.85-.84.85.85,0,0,1,0,1.69A.85.85,0,0,1,94.16,76.55Zm-1.09-.72a.73.73,0,0,0,.73-.73.73.73,0,0,0-.73-.72.72.72,0,0,0-.72.72A.73.73,0,0,0,93.07,75.83Zm0,3.62a1,1,0,1,0-1-1A1,1,0,0,0,93.07,79.45Zm3.87,0a1,1,0,1,0-1-1A1,1,0,0,0,96.94,79.45Zm-5.8-2a.85.85,0,1,0-.85-.85A.85.85,0,0,0,91.14,77.4Zm-9.67,2a1,1,0,1,0-1-1A1,1,0,0,0,81.47,79.45Zm19.34-3.62a.73.73,0,0,0,.73-.73.73.73,0,0,0-.73-.72.72.72,0,0,0-.72.72A.73.73,0,0,0,100.81,75.83ZM79.53,77.4a.85.85,0,1,0-.84-.85A.85.85,0,0,0,79.53,77.4Zm19.35,0a.85.85,0,1,0-.85-.85A.85.85,0,0,0,98.88,77.4Zm1.93,2a1,1,0,1,0-1-1A1,1,0,0,0,100.81,79.45ZM81.47,75.83a.73.73,0,0,0,.72-.73.72.72,0,0,0-.72-.72.73.73,0,0,0-.73.72A.73.73,0,0,0,81.47,75.83ZM83.4,77.4a.85.85,0,1,0-.84-.85A.85.85,0,0,0,83.4,77.4Zm19.34,0a.85.85,0,1,0-.84-.85A.85.85,0,0,0,102.74,77.4Zm-17.4,2a1,1,0,1,0-1-1A1,1,0,0,0,85.34,79.45Zm1.93-2a.85.85,0,1,0-.85-.85A.85.85,0,0,0,87.27,77.4Zm1.94,2a1,1,0,1,0-1-1A1,1,0,0,0,89.21,79.45Zm0-3.62a.73.73,0,0,0,.72-.73.73.73,0,0,0-1.45,0A.73.73,0,0,0,89.21,75.83ZM77.6,79.45a1,1,0,1,0-1-1A1,1,0,0,0,77.6,79.45Zm7.74-3.62a.73.73,0,0,0,.72-.73.72.72,0,0,0-.72-.72.73.73,0,0,0-.73.72A.73.73,0,0,0,85.34,75.83Zm-7.74,0a.73.73,0,0,0,.73-.73.73.73,0,0,0-1.46,0A.73.73,0,0,0,77.6,75.83ZM6.2,72.9,26.6,35.34h0a7.42,7.42,0,0,1,6.31-3.67H91.5v3.56a5.18,5.18,0,0,0,5.18,5.17h4.14a5.13,5.13,0,0,0,3-1l18.06,33.08a14.29,14.29,0,0,0-6.44-1.74H13A13.35,13.35,0,0,0,6.2,72.9ZM79.49,45.68c.05.19.34.34.66.34s.52-.15.47-.34a.65.65,0,0,0-.64-.34C79.66,45.34,79.45,45.49,79.49,45.68Zm-3.31-.16c.06.19.1.39.15.63l.34,1.76h.7l-.3-1.46a.44.44,0,0,1,0-.2.81.81,0,0,1,.81-.43.93.93,0,0,1,1,.69l.32,1.4h.7l-.35-1.44a1.49,1.49,0,0,0-1.55-1,1.32,1.32,0,0,0-1.13.43h0l-.12-.39Zm-3.86,1.19A1.65,1.65,0,0,0,74.1,47.9a1.38,1.38,0,0,0,1.15-.42h0l0,.27c.1.63-.38.88-1.11.88a3.29,3.29,0,0,1-1.17-.2l-.12.35a3.77,3.77,0,0,0,1.32.21,2.73,2.73,0,0,0,1.38-.3A1,1,0,0,0,76,47.54l-.26-1.38a3.79,3.79,0,0,1-.08-.64H75l0,.35h0a1.72,1.72,0,0,0-1.22-.39C73,45.48,72.21,45.91,72.32,46.71Zm-.42,1.2-.28-2.39H71l.25,2.39Zm-1.1-3c0,.14.18.25.43.25s.41-.11.39-.25-.19-.26-.43-.26S70.78,44.75,70.8,44.89ZM69.89,47c0,.34-.36.58-1.06.58a3.67,3.67,0,0,1-1.24-.22l-.16.37a4.18,4.18,0,0,0,1.38.22c1.26,0,1.82-.46,1.77-1s-.51-.76-1.41-1c-.73-.17-1-.32-1.07-.62s.24-.47.93-.47a3.06,3.06,0,0,1,1,.15l.15-.33A3.64,3.64,0,0,0,69,44.59c-1,0-1.62.36-1.6.85s.56.73,1.42.92S69.87,46.71,69.89,47Zm-5.41-1H65v1a.82.82,0,0,0,.34.73,1.75,1.75,0,0,0,.92.22,3.56,3.56,0,0,0,.78-.07l0-.58-.35,0c-.35,0-.47-.14-.48-.43l0-.86H67l0-.54h-.83v-.62L65,45.07v.43h-.49Zm-3.92,1.87h1.21l.07-1.45a.27.27,0,0,1,0-.16.68.68,0,0,1,.6-.26c.44,0,.6.21.6.52l0,1.35h1.21V46.48c0-.71-.56-1-1.3-1a2,2,0,0,0-.61.09,1.48,1.48,0,0,0-.47.24h0l.05-1.31H60.78Zm-2.9,0a1.76,1.76,0,0,0,1.08-.32h0v.15c0,.47-.5.66-1.08.66a3,3,0,0,1-1.11-.19l-.32.61a4.59,4.59,0,0,0,1.4.19,3.5,3.5,0,0,0,1.62-.31,1.32,1.32,0,0,0,.69-1.14L60,46.2a4.85,4.85,0,0,1,.08-.7h-1l-.06.28h0a1.27,1.27,0,0,0-1-.33,1.72,1.72,0,0,0-1.86,1.24C56.08,47.39,56.7,47.89,57.66,47.89Zm-2.75-3c0,.2.18.36.55.36s.64-.16.67-.36-.18-.35-.55-.35S54.94,44.67,54.91,44.86Zm-.46,3h1.21L56,45.5H54.84ZM52,46.27l-.33,1.64h1.2l.24-1.25a.38.38,0,0,1,0-.16.94.94,0,0,1,.87-.38l.32,0,.11-.68-.24,0a1.41,1.41,0,0,0-1.1.49h0l0-.43h-1C52.07,45.7,52,45.92,52,46.27Zm-4.57,1.62a12.53,12.53,0,0,0,1.29,0,5.43,5.43,0,0,0,2.18-.31,1.1,1.1,0,0,0,.7-.72c.09-.42-.29-.71-.86-.81h0c.62-.14.94-.4,1-.68s-.14-.5-.47-.62a4.22,4.22,0,0,0-1.47-.17c-.58,0-1.19,0-1.5.06Zm3.13-2.39c0-.24-.21-.37-.74-.37a4.81,4.81,0,0,0-.5,0l-.19.74h.39C50.1,45.89,50.46,45.73,50.52,45.5Zm-.2,1.38c.08-.33-.37-.46-1-.46H49l-.24.94h.46C49.73,47.37,50.24,47.23,50.32,46.88Zm69.83,32.57a1,1,0,1,0-1-1A1,1,0,0,0,120.15,79.45Zm-1.93-2a.85.85,0,1,0-.85-.85A.85.85,0,0,0,118.22,77.4Zm-1.94-1.57a.73.73,0,0,0,.73-.73.73.73,0,1,0-.73.73ZM79.64,45.68c0-.15.11-.27.35-.27a.49.49,0,0,1,.49.27c0,.15-.11.27-.35.27S79.67,45.83,79.64,45.68Zm.17-.17.08.35H80l0-.14H80c.08,0,.11,0,.13.05l.07.09h.13l-.06-.09a.17.17,0,0,0-.12-.08h0c.06,0,.1,0,.09-.08a.16.16,0,0,0-.07-.07.43.43,0,0,0-.2,0Zm.22.15c.07,0,.13,0,.12,0s-.05,0-.13,0H80l0,.09Zm-22,1.66a.75.75,0,0,0,.67-.31.51.51,0,0,0,.06-.2l0-.35a.61.61,0,0,0,0-.14.58.58,0,0,0-.6-.32.79.79,0,0,0-.85.67C57.34,47,57.59,47.32,58.08,47.32Zm16.17.23a.88.88,0,0,0,.89-.45.45.45,0,0,0,0-.23l-.08-.43a.44.44,0,0,0-.07-.19,1.19,1.19,0,0,0-1-.45c-.65,0-1.06.34-1,.89S73.51,47.55,74.25,47.55Zm30.43,28.28a.73.73,0,0,0,.72-.73.72.72,0,0,0-.72-.72.73.73,0,0,0-.73.72A.73.73,0,0,0,104.68,75.83Zm1.93,1.57a.85.85,0,1,0-.84-.85A.85.85,0,0,0,106.61,77.4Zm1.94,2a1,1,0,1,0-1-1A1,1,0,0,0,108.55,79.45Zm0-3.62a.73.73,0,0,0,.72-.73.72.72,0,0,0-.72-.72.73.73,0,0,0-.73.72A.73.73,0,0,0,108.55,75.83Zm-3.87,3.62a1,1,0,1,0-1-1A1,1,0,0,0,104.68,79.45Zm11.6,0a1,1,0,1,0-1-1A1,1,0,0,0,116.28,79.45Zm-1.93-2a.85.85,0,1,0-.85-.85A.85.85,0,0,0,114.35,77.4Zm-1.93-1.57a.73.73,0,0,0,.72-.73.72.72,0,0,0-.72-.72.73.73,0,0,0-.73.72A.73.73,0,0,0,112.42,75.83Zm-1.94,1.57a.85.85,0,1,0,0-1.69.85.85,0,0,0,0,1.69Zm1.94,2a1,1,0,1,0-1-1A1,1,0,0,0,112.42,79.45ZM96.94,75.83a.73.73,0,0,0,.73-.73.73.73,0,0,0-.73-.72.72.72,0,0,0-.72.72A.73.73,0,0,0,96.94,75.83ZM40.85,77.4a.85.85,0,1,0-.85-.85A.85.85,0,0,0,40.85,77.4ZM27.31,75.83A.73.73,0,0,0,28,75.1a.73.73,0,0,0-1.46,0A.73.73,0,0,0,27.31,75.83Zm3.87,3.62a1,1,0,1,0-1-1A1,1,0,0,0,31.18,79.45Zm44.49-2a.85.85,0,1,0-.85-.85A.85.85,0,0,0,75.67,77.4Zm-48.36,2a1,1,0,1,0-1-1A1,1,0,0,0,27.31,79.45Zm3.87-3.62a.73.73,0,0,0,.72-.73.72.72,0,0,0-.72-.72.73.73,0,0,0-.73.72A.73.73,0,0,0,31.18,75.83Zm7.74,0a.73.73,0,0,0,.72-.73.73.73,0,0,0-1.45,0A.73.73,0,0,0,38.92,75.83Zm0,3.62a1,1,0,1,0-1-1A1,1,0,0,0,38.92,79.45ZM23.44,75.83a.73.73,0,0,0,.73-.73.73.73,0,0,0-.73-.72.72.72,0,0,0-.72.72A.73.73,0,0,0,23.44,75.83Zm9.67,1.57a.85.85,0,1,0-.84-.85A.85.85,0,0,0,33.11,77.4Zm3.87,0a.85.85,0,1,0-.85-.85A.85.85,0,0,0,37,77.4Zm-1.93-1.57a.73.73,0,0,0,.72-.73.72.72,0,0,0-.72-.72.73.73,0,0,0-.73.72A.73.73,0,0,0,35.05,75.83Zm0,3.62a1,1,0,1,0-1-1A1,1,0,0,0,35.05,79.45Zm-5.81-2a.85.85,0,1,0-.84-.85A.85.85,0,0,0,29.24,77.4ZM9.9,77.4a.85.85,0,1,0,0-1.69.85.85,0,0,0,0,1.69Zm1.94,2a1,1,0,1,0-1-1A1,1,0,0,0,11.84,79.45Zm0-3.62a.73.73,0,0,0,.72-.73.72.72,0,0,0-.72-.72.73.73,0,0,0-.73.72A.73.73,0,0,0,11.84,75.83Zm1.93,1.57a.85.85,0,1,0-.85-.85A.85.85,0,0,0,13.77,77.4ZM124.45,90.72H3.55A3.8,3.8,0,0,1,.31,85.35l2.53-6.14.33-.73h0l0,0c.17-.34.35-.68.54-1l.65-1.19A12.56,12.56,0,0,1,13,72.15H115.45a12.57,12.57,0,0,1,8,3.22l1.05,1.93h0a14,14,0,0,1,1.22,2.52l2,5.71A3.8,3.8,0,0,1,124.45,90.72ZM5,78.22a3.28,3.28,0,0,0,3.08,1.93H119.94a3.23,3.23,0,0,0,3.2-2.29l-.59-1.09a12.25,12.25,0,0,0-7.88-3.22H13.77A12.27,12.27,0,0,0,5.3,77.63Zm104.69,6.09a2.68,2.68,0,0,0-2.23-1c-.93,0-1.77.37-1.91,1-.17.74.85,1.53,2.34,1.53S110.11,85.05,109.67,84.31Zm-87.2,0c-.14-.58-1-1-1.91-1a2.68,2.68,0,0,0-2.23,1c-.44.74.31,1.53,1.8,1.53S22.64,85.05,22.47,84.31Zm103,1.81a1,1,0,0,0-.17-.25l-.06-.08a.05.05,0,0,0-.07,0,0,0,0,0,0,0,.07,2.44,2.44,0,0,1-.31,1.24,2.05,2.05,0,0,1-1,.84l-.36.11a2.66,2.66,0,0,1-.42,0h-1.18L107.5,88l-43.6-.15L20.29,88,5.93,88H4.75A2.17,2.17,0,0,1,4,87.86,2,2,0,0,1,3.07,87a2.5,2.5,0,0,1-.27-1.28,1.48,1.48,0,0,0-.25.3,1.83,1.83,0,0,0-.28,1.19A2.42,2.42,0,0,0,3.33,89a2.67,2.67,0,0,0,1.31.46,5,5,0,0,0,.65,0h.64l14.36,0,43.61.14,43.6-.15,14.37,0c.45,0,.8,0,1.27,0a2.5,2.5,0,0,0,.69-.12,2.82,2.82,0,0,0,.61-.27,2.46,2.46,0,0,0,1.17-1.73A1.86,1.86,0,0,0,125.42,86.12ZM8,79.45a1,1,0,1,0-1-1A1,1,0,0,0,8,79.45Zm7.73-3.62a.73.73,0,0,0,.73-.73.73.73,0,0,0-.73-.72.72.72,0,0,0-.72.72A.73.73,0,0,0,15.7,75.83Zm3.87,0a.73.73,0,0,0,.73-.73.73.73,0,0,0-.73-.72.72.72,0,0,0-.72.72A.73.73,0,0,0,19.57,75.83Zm1.94,1.57a.85.85,0,1,0-.85-.85A.85.85,0,0,0,21.51,77.4Zm-1.94,2a1,1,0,1,0-1-1A1,1,0,0,0,19.57,79.45Zm-1.93-2a.85.85,0,1,0-.85-.85A.85.85,0,0,0,17.64,77.4Zm5.8,2a1,1,0,1,0-1-1A1,1,0,0,0,23.44,79.45Zm-7.74,0a1,1,0,1,0-1-1A1,1,0,0,0,15.7,79.45Zm9.68-2a.85.85,0,1,0-.85-.85A.85.85,0,0,0,25.38,77.4Zm38.68,0a.85.85,0,1,0-.85-.85A.85.85,0,0,0,64.06,77.4ZM66,75.83a.73.73,0,0,0,.73-.73.73.73,0,1,0-.73.73Zm-3.86,0a.73.73,0,0,0,.72-.73.72.72,0,0,0-.72-.72.73.73,0,0,0-.73.72A.73.73,0,0,0,62.13,75.83ZM66,79.45a1,1,0,1,0-1-1A1,1,0,0,0,66,79.45Zm-5.8-2a.85.85,0,1,0,0-1.69.85.85,0,0,0,0,1.69Zm1.94,2a1,1,0,1,0-1-1A1,1,0,0,0,62.13,79.45Zm7.73,0a1,1,0,1,0-1-1A1,1,0,0,0,69.86,79.45Zm3.87,0a1,1,0,1,0-1-1A1,1,0,0,0,73.73,79.45Zm-5.8-2a.85.85,0,1,0-.85-.85A.85.85,0,0,0,67.93,77.4Zm3.87,0a.85.85,0,1,0-.85-.85A.85.85,0,0,0,71.8,77.4Zm1.93-1.57a.73.73,0,0,0,.73-.73.73.73,0,0,0-.73-.72.72.72,0,0,0-.72.72A.73.73,0,0,0,73.73,75.83Zm-3.87,0a.73.73,0,0,0,.73-.73.73.73,0,0,0-.73-.72.72.72,0,0,0-.72.72A.73.73,0,0,0,69.86,75.83Zm-11.6,0A.73.73,0,0,0,59,75.1a.72.72,0,0,0-.72-.72.73.73,0,0,0-.73.72A.73.73,0,0,0,58.26,75.83Zm-3.87,0a.73.73,0,0,0,.72-.73.72.72,0,0,0-.72-.72.73.73,0,0,0-.73.72A.73.73,0,0,0,54.39,75.83Zm-7.74,3.62a1,1,0,1,0-1-1A1,1,0,0,0,46.65,79.45Zm3.87,0a1,1,0,1,0-1-1A1,1,0,0,0,50.52,79.45Zm-1.93-2a.85.85,0,1,0-.85-.85A.85.85,0,0,0,48.59,77.4Zm-1.94-1.57a.73.73,0,0,0,.73-.73.73.73,0,0,0-.73-.72.72.72,0,0,0-.72.72A.73.73,0,0,0,46.65,75.83Zm-3.87,0a.73.73,0,0,0,.73-.73.73.73,0,0,0-.73-.72.72.72,0,0,0-.72.72A.73.73,0,0,0,42.78,75.83Zm1.94,1.57a.85.85,0,1,0-.85-.85A.85.85,0,0,0,44.72,77.4Zm11.6,0a.85.85,0,1,0-.84-.85A.85.85,0,0,0,56.32,77.4Zm-13.54,2a1,1,0,1,0-1-1A1,1,0,0,0,42.78,79.45Zm15.48,0a1,1,0,1,0-1-1A1,1,0,0,0,58.26,79.45Zm-5.81-2a.85.85,0,1,0-.84-.85A.85.85,0,0,0,52.45,77.4Zm-1.93-1.57a.73.73,0,0,0,.73-.73.73.73,0,0,0-.73-.72.72.72,0,0,0-.72.72A.73.73,0,0,0,50.52,75.83Zm3.87,3.62a1,1,0,1,0-1-1A1,1,0,0,0,54.39,79.45ZM115.32,14.5H102.89V2.07A2.07,2.07,0,0,0,100.82,0H96.68a2.07,2.07,0,0,0-2.07,2.07V14.5H82.18a2.08,2.08,0,0,0-2.08,2.07v4.15a2.09,2.09,0,0,0,2.08,2.07H94.61V35.22a2.07,2.07,0,0,0,2.07,2.07h4.14a2.07,2.07,0,0,0,2.07-2.07V22.79h12.43a2.08,2.08,0,0,0,2.07-2.07V16.57A2.07,2.07,0,0,0,115.32,14.5Z"/></g></g></svg>