<?xml version="1.0" encoding="UTF-8"?>
<svg width="128px" height="128px" viewBox="0 0 128 128" version="1.1" xmlns="http://www.w3.org/2000/svg" xmlns:xlink="http://www.w3.org/1999/xlink">
    <!-- Generator: Sketch 47.1 (45422) - http://www.bohemiancoding.com/sketch -->
    <title>BAcon/Actions/Manage BSN Network</title>
    <desc>Created with Sketch.</desc>
    <defs>
        <path d="M72.0009037,17.4769066 C72.0009037,16.7415468 71.4045866,16.1452297 70.6692268,16.1452297 C69.9328877,16.1452297 69.3365706,16.7415468 69.3365706,17.4769066 C69.3365706,18.2122665 69.9328877,18.8085836 70.6692268,18.8085836 C71.4045866,18.8085836 72.0009037,18.2122665 72.0009037,17.4769066 L72.0009037,17.4769066 Z M72.5414079,22.5333624 C72.5414079,21.4983752 71.7032348,20.6602021 70.6692268,20.6602021 C69.6342396,20.6602021 68.7960664,21.4983752 68.7960664,22.5333624 C68.7960664,23.5673704 69.6342396,24.4065227 70.6692268,24.4065227 C71.7032348,24.4065227 72.5414079,23.5673704 72.5414079,22.5333624 L72.5414079,22.5333624 Z M88.6742826,42.4791415 L88.5176147,42.9011656 C88.3746553,43.2840228 88.0084441,43.5376289 87.6001285,43.5376289 L75.6855364,43.5376289 C75.1009693,43.5376289 74.6466325,44.0467995 74.7132163,44.628429 L77.7643233,71.2580515 C78.0306587,73.5826111 76.2133113,75.6212519 73.8730849,75.6212519 L66.4675901,75.6212519 C64.0979885,75.6212519 62.2708493,73.5336524 62.5851643,71.1846134 L63.9648208,60.8797838 C64.0441339,60.2922792 63.5868595,59.7713585 62.9944591,59.7713585 L47.6576531,59.7713585 C47.2385665,59.7713585 46.8655011,59.5030648 46.7303751,59.1064992 L46.4101851,58.1635544 C46.1937876,57.5290495 46.6657496,56.8690861 47.3374631,56.8690861 L62.7888325,56.8690861 C63.7699651,56.8690861 64.5993257,56.143518 64.7295558,55.171198 L68.4043968,27.7308192 C68.5336478,26.7584992 69.3639875,26.0319519 70.3451201,26.0319519 L70.8356864,26.0319519 C71.8305274,26.0319519 72.6677214,26.7790619 72.7813056,27.7680278 L74.1168992,39.4221596 C74.2295043,40.4111256 75.0666982,41.1572563 76.0615393,41.1572563 L87.7577755,41.1572563 C88.44026,41.1572563 88.9132011,41.8387616 88.6742826,42.4791415 L88.6742826,42.4791415 Z M102.450285,111.444341 C102.353347,111.504071 102.244658,111.55303 102.127157,111.589259 C102.006719,111.629405 101.846134,111.64801 101.764863,111.651926 C101.51909,111.65976 101.335005,111.654864 101.098045,111.657801 C99.2787396,111.664655 96.6809903,111.673468 93.5623204,111.684239 C87.3259597,111.70676 79.0108121,111.735156 70.6956645,111.764531 C62.3805169,111.739073 54.0653693,111.712635 47.8290086,111.692072 C44.7103386,111.682281 42.1125894,111.674447 40.2932836,111.668572 C40.1796994,111.668572 40.0690527,111.668572 39.9613436,111.667593 C39.8497177,111.665635 39.7635504,111.672489 39.6196118,111.657801 C39.3591514,111.63528 39.1182746,111.543238 38.9322315,111.411049 C38.5513327,111.148631 38.3927064,110.760878 38.3741021,110.469084 C38.350602,110.170436 38.4455819,109.964809 38.5239158,109.844371 C38.6012706,109.731766 38.6551251,109.685744 38.6551251,109.685744 C38.6707919,109.681828 38.6002914,110.002997 38.7961262,110.362354 C38.8969812,110.536647 39.0565866,110.713877 39.2915884,110.815711 C39.4061518,110.866628 39.5344236,110.901879 39.677383,110.908733 C39.7351543,110.91265 39.8575511,110.910691 39.9613436,110.910691 C40.0690527,110.910691 40.1796994,110.910691 40.2932836,110.909712 C42.1125894,110.904816 44.7103386,110.896983 47.8290086,110.886212 C54.0653693,110.866628 62.3805169,110.840191 70.6956645,110.814732 C79.0108121,110.843128 87.3259597,110.872504 93.5623204,110.895025 C96.6809903,110.905795 99.2787396,110.914608 101.098045,110.921462 C101.31738,110.921462 101.525944,110.921462 101.721779,110.922441 C101.843197,110.920483 101.877468,110.907754 101.939156,110.898941 C102.00574,110.886212 102.066449,110.863691 102.126178,110.84117 C102.362159,110.745211 102.529598,110.572876 102.631432,110.404458 C102.83608,110.053914 102.777329,109.741557 102.792017,109.749391 C102.786142,109.735682 102.792996,109.720015 102.806704,109.71414 C102.821392,109.709245 102.837059,109.71512 102.842934,109.728828 C102.842934,109.728828 102.853705,109.743516 102.874267,109.769953 C102.891892,109.799329 102.934976,109.838496 102.962393,109.902142 C103.027998,110.023559 103.111228,110.242894 103.064227,110.538605 C103.02506,110.827461 102.842934,111.203464 102.450285,111.444341 L102.450285,111.444341 Z M48.9687674,108.953322 C49.0588514,109.344013 48.5222639,109.755266 47.741862,109.755266 C46.960481,109.755266 46.5688113,109.344013 46.7969589,108.953322 C46.9741894,108.652716 47.4843392,108.454922 47.9709888,108.454922 C48.4576384,108.454922 48.8982668,108.652716 48.9687674,108.953322 L48.9687674,108.953322 Z M93.7601136,109.755266 C92.9787325,109.755266 92.442145,109.344013 92.5332083,108.953322 C92.6037088,108.652716 93.0443372,108.454922 93.5300076,108.454922 C94.0166572,108.454922 94.526807,108.652716 94.7040375,108.953322 C94.9321851,109.344013 94.5414946,109.755266 93.7601136,109.755266 L93.7601136,109.755266 Z M39.8506969,105.437107 C41.0159142,104.094659 42.9115955,103.293695 44.2941896,103.293695 L97.2087652,103.293695 C97.9010414,103.203611 100.202101,103.942887 101.343818,104.984729 L101.651279,105.556567 C101.477965,106.224363 100.818981,106.758013 99.9749324,106.758013 L41.2988956,106.758013 C40.5331813,106.758013 39.924135,106.320322 39.6861956,105.744568 L39.8506969,105.437107 Z M104.074735,109.577056 L103.003518,106.582741 C102.8351,106.111758 102.619682,105.67113 102.369013,105.262814 L102.370972,105.262814 L101.818718,104.251327 C100.818001,103.232986 98.9585496,102.561273 97.6200184,102.561273 L43.8858739,102.561273 C42.4827172,102.561273 40.5566815,103.362237 39.373839,104.704685 L39.0340656,105.331357 C38.9322315,105.499774 38.8372515,105.674067 38.750105,105.853256 L38.7354174,105.880673 L38.7373758,105.880673 C38.676667,106.006987 38.6169373,106.1333 38.5630828,106.26451 L37.2353225,109.484034 C36.6889433,110.808857 37.5878252,112.30014 38.9332106,112.30014 L102.340617,112.30014 C103.645857,112.30014 104.544739,110.889149 104.074735,109.577056 L104.074735,109.577056 Z M67.5897238,87.6601991 C67.7581418,87.6601991 67.8952262,87.580886 67.9461432,87.474156 C67.9657267,87.4379265 67.9745393,87.3889678 67.9774768,87.3498009 L67.9951019,87.1324242 C67.9970603,87.1059865 67.9951019,87.0756321 67.9892269,87.0482152 C67.9529974,86.9297351 67.8403924,86.850422 67.6670786,86.850422 C67.4359934,86.850422 67.2391794,86.9982773 67.2117625,87.2646127 C67.1892415,87.4868853 67.3243676,87.6601991 67.5897238,87.6601991 L67.5897238,87.6601991 Z M76.2514991,87.8060961 C76.4845425,87.8060961 76.6754815,87.7003452 76.7263986,87.5289897 C76.740107,87.4829686 76.7410862,87.4310723 76.734232,87.3860303 L76.695065,87.1226324 C76.6882108,87.0795488 76.678419,87.0394026 76.6568772,87.0070899 C76.5677724,86.8533595 76.3768334,86.7299836 76.1095188,86.7299836 C75.7638703,86.7299836 75.5415978,86.9385477 75.5827231,87.2744044 C75.6169942,87.5632608 75.8539543,87.8060961 76.2514991,87.8060961 L76.2514991,87.8060961 Z M63.5359425,86.5429613 C63.5662969,86.395106 63.4233374,86.3177512 63.1423144,86.3177512 C63.0042508,86.3177512 62.9259169,86.3236263 62.875979,86.3295013 L62.7751241,86.7857965 L62.9807507,86.7857965 C63.3136699,86.7857965 63.5065672,86.6888583 63.5359425,86.5429613 L63.5359425,86.5429613 Z M79.2242721,86.5537322 L79.2702932,86.7632755 L79.3388354,86.7632755 L79.3202311,86.6800457 L79.3525439,86.6800457 C79.3907317,86.6800457 79.4103152,86.6908166 79.4210861,86.7123584 C79.4357737,86.737817 79.4455654,86.7554421 79.4563363,86.7632755 L79.5278161,86.7632755 C79.5209618,86.7554421 79.5111701,86.7446712 79.4945241,86.7123584 C79.4798365,86.6839624 79.4612322,86.6682956 79.4308778,86.6614414 L79.4298986,86.6585039 C79.4631906,86.6506705 79.4857116,86.6340245 79.4798365,86.608566 C79.4759198,86.5889825 79.4592739,86.5733157 79.4396904,86.5645031 C79.4171694,86.5537322 79.3907317,86.5478572 79.3358979,86.5478572 C79.2869392,86.5478572 79.2507098,86.5517739 79.2242721,86.5537322 L79.2242721,86.5537322 Z M79.1332088,86.6545872 C79.1136254,86.5625448 79.195876,86.4881275 79.3221895,86.4881275 C79.4524196,86.4881275 79.566983,86.5625448 79.5875457,86.6565455 C79.6090875,86.7485879 79.5287952,86.8239843 79.4005234,86.8230051 C79.2693141,86.8230051 79.1537715,86.7485879 79.1332088,86.6545872 L79.1332088,86.6545872 Z M79.3466688,86.6457746 C79.3848566,86.6457746 79.4132527,86.636962 79.4083568,86.6154202 C79.4044401,86.5958367 79.3809399,86.5840866 79.3378563,86.5840866 C79.3202311,86.5840866 79.3075019,86.5850658 79.3016268,86.586045 L79.3143561,86.6457746 L79.3466688,86.6457746 Z M61.8605753,88.0117226 C62.0015764,88.0273894 62.2355991,88.0430562 62.555789,88.0430562 C63.1266476,88.0430562 63.4889421,87.974514 63.7200272,87.8530964 C63.9178204,87.7473456 64.0637174,87.5994903 64.0979885,87.4095305 C64.145968,87.1510285 63.9422998,86.9747771 63.6348391,86.9160267 L63.6358182,86.9091725 C63.9657999,86.8239843 64.140093,86.6624205 64.1724057,86.4910651 C64.2056976,86.3118762 64.0960301,86.181646 63.9197788,86.1101663 C63.7337357,86.0279156 63.5085256,86.0034363 63.1335018,86.0034363 C62.8231036,86.0034363 62.4960594,86.0220406 62.3295998,86.0426033 L61.8605753,88.0117226 Z M64.3104693,87.01884 L64.1303012,88.0205352 L64.7775354,88.0205352 L64.9018905,87.2587377 C64.9067864,87.2225082 64.9175573,87.1862788 64.9302866,87.1569035 C64.9949121,87.0159024 65.1662676,86.9267976 65.3973527,86.9267976 C65.4678532,86.9267976 65.5168119,86.9326726 65.5657706,86.9385477 L65.6264794,86.5194611 C65.5824166,86.5135861 65.5549997,86.5106485 65.4972284,86.5106485 C65.3013936,86.5106485 65.0458291,86.597795 64.9087447,86.8092967 L64.8920988,86.8092967 L64.9107031,86.546878 L64.3790115,86.546878 C64.3692197,86.6682956 64.3486571,86.80538 64.3104693,87.01884 L64.3104693,87.01884 Z M65.6460629,88.0205352 L66.2923179,88.0205352 L66.4744443,86.546878 L65.8526687,86.546878 L65.6460629,88.0205352 Z M65.8908565,86.1552083 C65.8742105,86.2746676 65.9868156,86.372585 66.1826504,86.372585 C66.3902354,86.372585 66.5282989,86.2746676 66.5429865,86.1552083 C66.5547366,86.0337907 66.4450691,85.9407691 66.2472759,85.9407691 C66.0504619,85.9407691 65.9084816,86.0337907 65.8908565,86.1552083 L65.8908565,86.1552083 Z M67.3625554,88.0087851 C67.6004947,88.0087851 67.8061213,87.9373054 67.9402682,87.8129503 L67.9481016,87.8129503 L67.9402682,87.9089094 C67.9177472,88.1948282 67.6719744,88.3152667 67.3635345,88.3152667 C67.1138451,88.3152667 66.8935309,88.255537 66.7672174,88.1977657 L66.5958619,88.5688728 C66.7779883,88.6462275 67.0639072,88.688332 67.3449302,88.688332 C67.6563076,88.688332 67.9764976,88.6423109 68.2163953,88.4944555 C68.4680431,88.3377877 68.5649813,88.0939733 68.5835856,87.800221 L68.636461,86.9747771 C68.6511487,86.7583796 68.6668154,86.6389204 68.6805239,86.546878 L68.1409989,86.546878 L68.1067278,86.7172543 L68.0979152,86.7172543 C68.0048937,86.597795 67.8403924,86.5135861 67.5662236,86.5135861 C67.0717406,86.5135861 66.624258,86.80538 66.5684451,87.277342 C66.517528,87.7032828 66.8475097,88.0087851 67.3625554,88.0087851 L67.3625554,88.0087851 Z M68.9184632,88.0205352 L69.5656974,88.0205352 L69.5989893,87.1324242 C69.6009477,87.1001114 69.6068227,87.0609445 69.6244478,87.0345068 C69.6734066,86.9512769 69.7781782,86.8739222 69.9436587,86.8739222 C70.1796396,86.8739222 70.2667861,87.0041524 70.2638486,87.1960705 L70.2462235,88.0205352 L70.8934577,88.0205352 L70.8973744,87.148091 C70.8983535,86.7094209 70.5967679,86.5135861 70.2002023,86.5135861 C70.0856389,86.5135861 69.9700964,86.5341487 69.8751165,86.569399 C69.7762199,86.6036701 69.6920109,86.653608 69.6234687,86.7172543 L69.6156353,86.7172543 L69.6459897,85.9153106 L69.034985,85.9153106 L68.9184632,88.0205352 Z M71.0129169,86.8739222 L71.2821898,86.8739222 L71.2861065,87.474156 C71.2870857,87.6856576 71.3477945,87.8305754 71.4672538,87.9216386 C71.5739838,87.9989934 71.7492559,88.052848 71.9578201,88.052848 C72.1370089,88.052848 72.2936768,88.0332645 72.3739691,88.0117226 L72.3573231,87.654324 C72.2985727,87.6641158 72.2564682,87.6670533 72.1683425,87.6670533 C71.9783827,87.6670533 71.9137572,87.5838235 71.9088613,87.4046346 L71.8971112,86.8739222 L72.3475314,86.8739222 L72.3357813,86.546878 L71.8892779,86.546878 L71.8804653,86.1669584 L71.2782731,86.2834801 L71.2792523,86.546878 L71.0138961,86.546878 L71.0129169,86.8739222 Z M73.9161685,87.474156 C73.9318353,87.6827201 73.722292,87.8276379 73.3453099,87.8276379 C73.0917038,87.8276379 72.8518061,87.7688874 72.6833882,87.6925118 L72.5952625,87.9177219 C72.7519304,87.9931183 73.0564535,88.0557855 73.3335599,88.0557855 C74.0111484,88.0557855 74.3097966,87.7728041 74.2833589,87.4526142 C74.2579003,87.153966 74.0072317,86.9894647 73.5264572,86.8592346 C73.1367458,86.7534838 72.963432,86.6624205 72.9536402,86.479315 C72.946786,86.3461473 73.0809329,86.1894794 73.4539983,86.1894794 C73.7007502,86.1894794 73.8877725,86.2443132 73.9758982,86.2805426 L74.0571696,86.0788327 C73.935752,86.0308532 73.7262087,85.9858112 73.4520399,85.9858112 C72.924265,85.9858112 72.5825332,86.2071045 72.5952625,86.5086902 C72.6070126,86.782859 72.895869,86.9542145 73.3580392,87.0726946 C73.7428547,87.1745287 73.9014809,87.2851754 73.9161685,87.474156 L73.9161685,87.474156 Z M74.3998806,86.1698959 C74.407714,86.2560632 74.4997564,86.3236263 74.6299865,86.3236263 C74.772946,86.3236263 74.8512799,86.2560632 74.8414882,86.1698959 C74.8326756,86.0817702 74.7367165,86.0142072 74.6084447,86.0142072 C74.4742978,86.0142072 74.3920472,86.0847078 74.3998806,86.1698959 L74.3998806,86.1698959 Z M74.9913018,88.0205352 L74.8414882,86.5605864 L74.4811521,86.5605864 L74.6162781,88.0205352 L74.9913018,88.0205352 Z M75.2125952,87.2881129 C75.2576372,87.6974077 75.6581195,88.0156393 76.1692484,88.0156393 C76.4884592,88.0156393 76.6970233,87.9020551 76.7871074,87.7630124 L76.7949408,87.7630124 L76.8194201,87.9275137 C76.8781706,88.3152667 76.6167311,88.4660595 76.2289781,88.4660595 C75.9704761,88.4660595 75.7491827,88.4082882 75.6032857,88.3407252 L75.5337644,88.5581019 C75.7119741,88.6423109 75.9949554,88.688332 76.245624,88.688332 C76.5100011,88.688332 76.7968991,88.6393733 76.9829422,88.5013098 C77.1601728,88.3632462 77.2247983,88.1497862 77.1689853,87.800221 L77.0328801,86.9483394 C77.0054632,86.7769839 76.9907756,86.659483 76.9868589,86.5605864 L76.6676481,86.5605864 L76.6872316,86.7740464 L76.6793982,86.7740464 C76.5707099,86.6565455 76.3680208,86.5312112 76.0243307,86.5312112 C75.5670563,86.5312112 75.1587406,86.7995049 75.2125952,87.2881129 L75.2125952,87.2881129 Z M77.2815904,86.5605864 C77.3139031,86.6771082 77.3374033,86.7946091 77.3628618,86.9454019 L77.5449882,88.0205352 L77.9190328,88.0205352 L77.7594274,87.1294867 C77.7525732,87.0844446 77.7525732,87.0394026 77.7633441,87.0070899 C77.8025111,86.8621721 77.9660332,86.7417337 78.201035,86.7417337 C78.5427668,86.7417337 78.7004138,86.9326726 78.7483934,87.1647369 L78.9236656,88.0205352 L79.2977101,88.0205352 L79.1087295,87.1382992 C79.0039578,86.6477329 78.5535377,86.5312112 78.2793689,86.5312112 C77.9523247,86.5312112 77.7466981,86.6624205 77.6713017,86.7946091 L77.6634683,86.7946091 L77.6008012,86.5605864 L77.2815904,86.5605864 Z M79.0587916,86.6545872 C79.083271,86.7720881 79.2389597,86.867068 79.4083568,86.867068 C79.5787331,86.867068 79.690359,86.7720881 79.6629421,86.6545872 C79.6355252,86.5380654 79.482774,86.4470022 79.3163144,86.4470022 C79.1469173,86.4470022 79.0333331,86.5380654 79.0587916,86.6545872 L79.0587916,86.6545872 Z M39.7997798,103.351466 L50.7263851,80.3105173 L50.7263851,80.3095381 C51.4627241,78.9171523 52.7278172,78.0535207 54.1045362,78.0535207 L87.5198362,78.0535207 C88.9993684,78.0535207 90.3427955,79.0483617 91.0468218,80.6130821 L101.764863,103.103735 C100.667209,102.421251 99.3707819,102.036435 98.3171905,102.036435 L43.4364329,102.036435 C42.3280077,102.036435 40.9777264,102.502522 39.7997798,103.351466 L39.7997798,103.351466 Z M63.4311708,87.3919054 C63.4722961,87.1892163 63.2343568,87.108924 62.9190627,87.108924 L62.7026652,87.108924 L62.5753725,87.6856576 C62.6370605,87.6925118 62.7134361,87.6925118 62.8221244,87.6925118 C63.1139184,87.6925118 63.3880871,87.609282 63.4311708,87.3919054 L63.4311708,87.3919054 Z M48.5937436,74.3209085 C48.5242223,74.3639922 48.4458883,74.3992424 48.3607002,74.4256801 C48.2745328,74.4540762 48.1580111,74.4687638 48.1002398,74.4707221 C47.9230093,74.4765972 47.7908208,74.4736597 47.6204444,74.4746388 C46.3093301,74.4795347 44.4381282,74.4863889 42.1919025,74.4942223 C37.6994511,74.5108683 31.7098423,74.531431 25.7202335,74.5529728 C19.7306247,74.5333893 13.7400367,74.514785 9.24856451,74.5000974 C7.00233882,74.4932432 5.13015768,74.4863889 3.82002255,74.4824722 C3.73777192,74.4824722 3.65845881,74.4824722 3.58110404,74.4814931 C3.50081175,74.4805139 3.4381446,74.4844306 3.33533131,74.4746388 C3.14732985,74.4589721 2.97401602,74.3923882 2.83986915,74.2974083 C2.56570036,74.1074485 2.45113697,73.8283838 2.43742853,73.6188406 C2.4198034,73.4034222 2.48932477,73.2555669 2.5451377,73.1684204 C2.60095063,73.087149 2.6401176,73.0548362 2.6401176,73.0548362 C2.65088852,73.0509195 2.60095063,73.2829838 2.74195172,73.5414858 C2.81441061,73.6668201 2.928974,73.7950919 3.09837114,73.86853 C3.18062178,73.9047594 3.27364333,73.930218 3.37645663,73.936093 C3.41758194,73.9390305 3.5066868,73.9380514 3.58110404,73.9380514 C3.65845881,73.9370722 3.73777192,73.9370722 3.82002255,73.9370722 C5.13015768,73.9321763 7.00233882,73.9263013 9.24856451,73.9194471 C13.7400367,73.9047594 19.7306247,73.8861551 25.7202335,73.8665716 C31.7098423,73.8881135 37.6994511,73.9086761 42.1919025,73.9253221 C44.4381282,73.9331555 46.3093301,73.9400097 47.6204444,73.9439264 C47.7780915,73.9439264 47.9279051,73.9449056 48.0689062,73.9449056 C48.1560527,73.9429472 48.1805321,73.9351138 48.2255741,73.9282596 C48.2735537,73.9184679 48.3176165,73.9028011 48.359721,73.8871343 C48.5300973,73.8185921 48.6505357,73.694237 48.724953,73.5718402 C48.8718291,73.3201924 48.8297246,73.0940032 48.8404955,73.0998782 C48.8355997,73.0900865 48.8404955,73.0793156 48.8502873,73.0753989 C48.8610582,73.0714822 48.8718291,73.076378 48.876725,73.0861698 C48.876725,73.0861698 48.8845584,73.0959615 48.899246,73.115545 C48.9119753,73.1361077 48.9433088,73.1645037 48.9619131,73.2105249 C49.0108719,73.2976714 49.0696223,73.4553185 49.0353512,73.6677993 C49.0079343,73.8773426 48.876725,74.1475947 48.5937436,74.3209085 L48.5937436,74.3209085 Z M10.0681333,72.5270613 C10.1347172,72.8071051 9.74794337,73.1037949 9.18491819,73.1037949 C8.621893,73.1037949 8.33989082,72.8071051 8.5043921,72.5270613 C8.63266392,72.3106638 8.99985426,72.1677043 9.35039863,72.1677043 C9.70094301,72.1677043 10.0181955,72.3106638 10.0681333,72.5270613 L10.0681333,72.5270613 Z M42.3338827,73.1037949 C41.7708576,73.1037949 41.3840837,72.8071051 41.4496884,72.5270613 C41.5006055,72.3106638 41.8178579,72.1677043 42.1684023,72.1677043 C42.5189467,72.1677043 42.8871162,72.3106638 43.0134297,72.5270613 C43.1779309,72.8071051 42.8959288,73.1037949 42.3338827,73.1037949 L42.3338827,73.1037949 Z M3.50081175,69.9939375 C4.33996407,69.0274926 5.70591213,68.4497798 6.70173233,68.4497798 L44.8180478,68.4497798 C45.3164475,68.3851543 46.9741894,68.9178251 47.7966958,69.6668934 L48.0179892,70.0791257 C47.8926549,70.5608794 47.4187345,70.9456949 46.8106673,70.9456949 L4.54461149,70.9456949 C3.99235722,70.9456949 3.55466634,70.6304008 3.38233167,70.2152309 L3.50081175,69.9939375 Z M49.764836,72.9755231 L48.9922675,70.8184023 C48.8708499,70.479608 48.7161404,70.1623555 48.5349932,69.8686032 L48.5369515,69.8686032 L48.1384276,69.1391184 C47.4177554,68.4057169 46.078245,67.922984 45.1147376,67.922984 L6.40798006,67.922984 C5.39649307,67.922984 4.00998236,68.4997177 3.1571216,69.4661626 L2.91232804,69.917562 C2.83986915,70.0389796 2.77132695,70.1643139 2.70768062,70.294544 L2.69788888,70.3131483 L2.69886806,70.3131483 C2.65578439,70.4042115 2.61270072,70.4952748 2.57353375,70.5902547 L1.61688053,72.9089392 C1.22325248,73.8626549 1.87146583,74.9377883 2.84084832,74.9377883 L48.5144305,74.9377883 C49.455417,74.9377883 50.1026511,73.9214054 49.764836,72.9755231 L49.764836,72.9755231 Z M23.4818412,57.1892761 C23.604238,57.1892761 23.7021554,57.1315048 23.739364,57.05415 C23.7540516,57.0277123 23.7589475,56.9934412 23.761885,56.9650452 L23.7746143,56.8083773 C23.7755935,56.7887938 23.7746143,56.767252 23.7706976,56.7486477 C23.7442599,56.6624803 23.6629884,56.6047091 23.5376541,56.6047091 C23.3711945,56.6047091 23.2301934,56.7124182 23.2106099,56.9033572 C23.193964,57.0629626 23.2909022,57.1892761 23.4818412,57.1892761 L23.4818412,57.1892761 Z M29.7221186,57.2940477 C29.8895574,57.2940477 30.027621,57.2176721 30.0638504,57.093317 C30.0746213,57.0610042 30.0746213,57.0237956 30.0697254,56.9905037 L30.0413294,56.8025022 C30.0364335,56.7692103 30.0295793,56.7417934 30.0139125,56.7182933 C29.949287,56.6066674 29.8122026,56.5185417 29.6193053,56.5185417 C29.370595,56.5185417 29.2109896,56.6693346 29.2403649,56.9102114 C29.2648442,57.1187755 29.4352205,57.2940477 29.7221186,57.2940477 L29.7221186,57.2940477 Z M20.5629228,56.3843949 C20.5844646,56.2776649 20.4816513,56.2218519 20.2789623,56.2218519 C20.1790865,56.2218519 20.1232736,56.2267478 20.0870441,56.2306645 L20.0136061,56.5586879 L20.1624405,56.5586879 C20.4023382,56.5586879 20.541381,56.4881873 20.5629228,56.3843949 L20.5629228,56.3843949 Z M31.8635726,56.3922282 L31.8968646,56.5430211 L31.9458233,56.5430211 L31.933094,56.4823123 L31.955615,56.4823123 C31.9830319,56.4823123 31.9977195,56.4901457 32.0045737,56.5058125 C32.0153447,56.5234376 32.0221989,56.537146 32.0300323,56.5430211 L32.0819285,56.5430211 C32.0770326,56.537146 32.0701784,56.5283335 32.0584283,56.5058125 C32.0466782,56.4852498 32.033949,56.4734997 32.0124071,56.469583 L32.011428,56.4676247 C32.0349281,56.4617496 32.0515741,56.4490204 32.0476574,56.4313952 C32.0437407,56.4167076 32.0329698,56.4049575 32.0182822,56.4000616 C32.0026154,56.3922282 31.9830319,56.3873324 31.9438649,56.3873324 C31.9086147,56.3873324 31.882177,56.3902699 31.8635726,56.3922282 L31.8635726,56.3922282 Z M31.797968,56.4646871 C31.7832804,56.3990825 31.8420308,56.3442487 31.9340732,56.3442487 C32.0280739,56.3442487 32.1093454,56.3990825 32.1250122,56.4656663 C32.1396998,56.531271 32.0829077,56.5861047 31.9908653,56.5851256 C31.8949062,56.5851256 31.8126556,56.531271 31.797968,56.4646871 L31.797968,56.4646871 Z M31.9516983,56.4578329 C31.978136,56.4578329 31.9986987,56.4509787 31.9957612,56.4362911 C31.9928236,56.4225826 31.9761777,56.4127909 31.9448441,56.4127909 C31.9321148,56.4127909 31.9233023,56.4137701 31.9184064,56.4147493 L31.9281981,56.4578329 L31.9516983,56.4578329 Z M19.355601,57.441903 C19.4564559,57.4536531 19.6258531,57.464424 19.855959,57.464424 C20.2672122,57.464424 20.5286517,57.4154653 20.6951113,57.3273396 C20.8380708,57.2519432 20.9418632,57.1442341 20.9673218,57.009108 C21.0015929,56.8211066 20.8547167,56.6947931 20.6334233,56.6517094 L20.6344025,56.6477927 C20.8723419,56.5861047 20.9976762,56.4705622 21.0211763,56.3462071 C21.0446765,56.2179352 20.9653634,56.1229553 20.8380708,56.0730174 C20.7049031,56.0132878 20.5423601,55.9946835 20.2721081,55.9946835 C20.0488563,55.9946835 19.8128753,56.0093711 19.6934161,56.0230796 L19.355601,57.441903 Z M21.1200729,56.7261267 L20.9908219,57.4487572 L21.4569089,57.4487572 L21.5460137,56.8994405 C21.5509096,56.873982 21.5577638,56.8475443 21.5675556,56.8260024 C21.6135768,56.7251475 21.7369527,56.660522 21.9034123,56.660522 C21.9543294,56.660522 21.9895797,56.6644387 22.0238508,56.6693346 L22.0688928,56.3667697 C22.03658,56.362853 22.0169965,56.3608947 21.974892,56.3608947 C21.833891,56.3608947 21.6498062,56.4235618 21.5509096,56.5753338 L21.5391595,56.5753338 L21.552868,56.3863532 L21.1690317,56.3863532 C21.1631566,56.4744789 21.1474898,56.5733755 21.1200729,56.7261267 L21.1200729,56.7261267 Z M22.0826012,57.4487572 L22.5486881,57.4487572 L22.6789183,56.3863532 L22.2314357,56.3863532 L22.0826012,57.4487572 Z M22.2588526,56.1053302 C22.2461233,56.1914975 22.3273948,56.2610189 22.469375,56.2610189 C22.6182095,56.2610189 22.7180853,56.1914975 22.7288562,56.1053302 C22.7366896,56.0172045 22.6573765,55.9506207 22.5153962,55.9506207 C22.373416,55.9506207 22.2715818,56.0172045 22.2588526,56.1053302 L22.2588526,56.1053302 Z M23.3183191,57.4399447 C23.4906538,57.4399447 23.6385091,57.3880484 23.7344681,57.2979644 L23.7403432,57.2979644 L23.7354473,57.3674858 C23.7188014,57.5740915 23.5415708,57.6612381 23.3192983,57.6612381 C23.1401094,57.6612381 22.980504,57.6171752 22.8894408,57.5760499 L22.767044,57.8423853 C22.8982534,57.8991774 23.1029008,57.9295318 23.306569,57.9295318 C23.5307999,57.9295318 23.7609059,57.8962399 23.9342197,57.7895099 C24.1153669,57.6759257 24.1848883,57.5016327 24.1985967,57.2891518 L24.2367845,56.6947931 C24.2465763,56.5391044 24.2583264,56.452937 24.2681181,56.3863532 L23.8793859,56.3863532 L23.8549066,56.5097292 L23.8490315,56.5097292 C23.7814685,56.4235618 23.6629884,56.362853 23.4661744,56.362853 C23.1087758,56.362853 22.7866275,56.5733755 22.7464813,56.9121698 C22.7102519,57.2196305 22.9481912,57.4399447 23.3183191,57.4399447 L23.3183191,57.4399447 Z M24.4394736,57.4487572 L24.9055605,57.4487572 L24.9300399,56.8083773 C24.9310191,56.7848771 24.9349358,56.7574602 24.947665,56.7368976 C24.9829153,56.6781471 25.0592909,56.6223342 25.1787501,56.6223342 C25.3471681,56.6223342 25.4108144,56.7163349 25.4078769,56.8534193 L25.3961268,57.4487572 L25.8622138,57.4487572 L25.8641721,56.8191482 C25.8661305,56.5038541 25.6487538,56.362853 25.3628349,56.362853 C25.2805843,56.362853 25.1973545,56.3775406 25.1288123,56.40202 C25.0573325,56.4284577 24.9966237,56.463708 24.947665,56.5097292 L24.94179,56.5097292 L24.9633318,55.9320164 L24.5236826,55.9320164 L24.4394736,57.4487572 Z M25.9483811,56.6223342 L26.1422576,56.6223342 L26.1442159,57.05415 C26.1451951,57.2069012 26.189258,57.3116729 26.2754253,57.3772775 C26.3527801,57.4330905 26.4790935,57.4712783 26.6289072,57.4712783 C26.7581582,57.4712783 26.8707632,57.458549 26.9285345,57.441903 L26.9167844,57.1843802 C26.8746799,57.1912344 26.8443255,57.1931928 26.7806792,57.1931928 C26.6435948,57.1931928 26.5965944,57.1344423 26.5936569,57.0042121 L26.5848443,56.6223342 L26.908951,56.6223342 L26.9011176,56.3863532 L26.5799485,56.3863532 L26.5730943,56.1131636 L26.1393201,56.1963934 L26.1402992,56.3863532 L25.9483811,56.3863532 L25.9483811,56.6223342 Z M28.0398973,57.05415 C28.0506682,57.2049429 27.8998753,57.3087353 27.6286441,57.3087353 C27.4455385,57.3087353 27.2722247,57.2666308 27.1517862,57.2117971 L27.0881399,57.37434 C27.2007449,57.4281946 27.42008,57.4732366 27.6198315,57.4732366 C28.1074603,57.4732366 28.3238578,57.2685892 28.3042743,57.0394624 C28.28567,56.8240441 28.1055019,56.705564 27.7588743,56.6115633 C27.4778512,56.5351877 27.3534961,56.4705622 27.3466419,56.3383737 C27.341746,56.2424146 27.4377051,56.1288304 27.706978,56.1288304 C27.8842086,56.1288304 28.0193346,56.1679973 28.0820018,56.1954142 L28.1407522,56.0495173 C28.0536057,56.0152462 27.9028129,55.9829334 27.7059988,55.9829334 C27.3251001,55.9829334 27.0793273,56.1415596 27.0881399,56.3589363 C27.0969525,56.5567295 27.3045374,56.6801055 27.6374566,56.7662728 C27.9155421,56.8387317 28.0291263,56.919024 28.0398973,57.05415 L28.0398973,57.05415 Z M28.3884833,56.1141428 C28.3943583,56.1768099 28.459963,56.2267478 28.5539637,56.2267478 C28.656777,56.2267478 28.71259,56.1768099 28.7067149,56.1141428 C28.6998607,56.0514756 28.6313185,56.0025169 28.5382969,56.0025169 C28.4423379,56.0025169 28.3826082,56.053434 28.3884833,56.1141428 L28.3884833,56.1141428 Z M28.8144241,57.4487572 L28.7057357,56.3971241 L28.4472337,56.3971241 L28.544172,57.4487572 L28.8144241,57.4487572 Z M28.9740295,56.9209823 C29.0053631,57.2157138 29.2951986,57.4438614 29.662389,57.4438614 C29.8924949,57.4438614 30.0432877,57.3635691 30.1069341,57.261735 L30.1137883,57.261735 L30.1314134,57.380215 C30.1735179,57.6612381 29.9845373,57.7689472 29.7054726,57.7689472 C29.5194295,57.7689472 29.3598241,57.7268427 29.2550525,57.6788632 L29.2051146,57.8355311 C29.3333864,57.8962399 29.5370547,57.9295318 29.7172227,57.9295318 C29.9081617,57.9295318 30.1147675,57.8942815 30.2489143,57.7934266 C30.376207,57.6955092 30.4232073,57.5417788 30.3830612,57.2891518 L30.2841646,56.6761888 C30.2645811,56.5528128 30.2538102,56.4676247 30.2518519,56.3971241 L30.0217459,56.3971241 L30.0364335,56.5498753 L30.0295793,56.5498753 C29.9522245,56.4656663 29.8063276,56.3755823 29.5585965,56.3755823 C29.2286148,56.3755823 28.9348625,56.5684796 28.9740295,56.9209823 L28.9740295,56.9209823 Z M30.4643327,56.3971241 C30.4868537,56.4813331 30.5044788,56.5645629 30.5221039,56.6732513 L30.6533133,57.4487572 L30.9225862,57.4487572 L30.809002,56.8064189 C30.8021478,56.7741062 30.803127,56.7417934 30.8109603,56.7182933 C30.8393564,56.6135216 30.9568573,56.5263751 31.1262544,56.5263751 C31.3720272,56.5263751 31.4865906,56.6644387 31.5208617,56.8328567 L31.6471751,57.4487572 L31.9164481,57.4487572 L31.7803428,56.812294 C31.7039672,56.4597913 31.3798606,56.3755823 31.1820674,56.3755823 C30.9470656,56.3755823 30.7982311,56.4705622 30.7443765,56.5645629 L30.7385015,56.5645629 L30.6934594,56.3971241 L30.4643327,56.3971241 Z M31.7431342,56.4646871 C31.7617385,56.5488961 31.8743436,56.6164591 31.9967403,56.6164591 C32.1181579,56.6164591 32.1994294,56.5488961 32.1798459,56.4646871 C32.1602624,56.3804782 32.0496158,56.3148735 31.9301565,56.3148735 C31.8077597,56.3148735 31.7255091,56.3804782 31.7431342,56.4646871 L31.7431342,56.4646871 Z M3.46458231,68.4909051 L11.3351848,51.894881 L11.3351848,51.8939018 C11.8658972,50.8912274 12.7775085,50.2684726 13.7684328,50.2684726 L37.839473,50.2684726 C38.9048146,50.2684726 39.8722387,50.9852281 40.379451,52.1122577 L40.379451,52.1132368 L48.1002398,68.3126954 C47.309067,67.8221291 46.375914,67.5440436 45.617054,67.5440436 L6.08387339,67.5440436 C5.28584638,67.5440436 4.31352637,67.8808795 3.46458231,68.4909051 L3.46458231,68.4909051 Z M20.4875264,56.9953996 C20.5159224,56.8495026 20.3455461,56.7917313 20.1183777,56.7917313 L19.9617098,56.7917313 L19.8706466,57.2069012 C19.9147095,57.2117971 19.9695432,57.2117971 20.0488563,57.2117971 C20.2583996,57.2117971 20.4552136,57.1510883 20.4875264,56.9953996 L20.4875264,56.9953996 Z M126.415574,54.4554216 C126.355845,54.4916511 126.288282,54.5229846 126.215823,54.5445265 C126.141406,54.5690058 126.04153,54.5807559 125.991592,54.5836934 C125.838841,54.5885893 125.725256,54.5856518 125.57838,54.5876101 C124.451351,54.5915268 122.843547,54.5974019 120.911636,54.6042561 C117.050752,54.6169854 111.901275,54.6355897 106.751797,54.6532148 C101.603299,54.637548 96.4538219,54.6209021 92.5919587,54.6081728 C90.6610271,54.6032769 89.0522438,54.5974019 87.9261935,54.5944643 C87.8547138,54.5934852 87.7871507,54.5934852 87.7205669,54.5934852 C87.6510455,54.592506 87.5981701,54.5964227 87.5080861,54.5876101 C87.3465223,54.5729225 87.198667,54.5161304 87.0831245,54.4348589 C86.8471435,54.272316 86.749226,54.0324183 86.737476,53.8512711 C86.7227883,53.6662072 86.7815388,53.5389145 86.8304975,53.4635181 C86.8774979,53.3939967 86.911769,53.3665799 86.911769,53.3665799 C86.9205815,53.3626632 86.8774979,53.5624147 86.9989155,53.7846873 C87.0606035,53.8923964 87.1604792,54.0030431 87.305397,54.0657103 C87.3768767,54.0970438 87.4561898,54.1185857 87.5443155,54.1234815 C87.580545,54.1254399 87.6559414,54.1244607 87.7205669,54.1244607 L87.9261935,54.1244607 C89.0522438,54.120544 90.6610271,54.114669 92.5919587,54.1097731 C96.4538219,54.0970438 101.603299,54.0803979 106.751797,54.0647311 C111.901275,54.0823562 117.050752,54.1009605 120.911636,54.114669 C122.843547,54.120544 124.451351,54.1273982 125.57838,54.1313149 L125.964175,54.1313149 C126.039571,54.1303358 126.061113,54.1225024 126.099301,54.1166273 C126.140426,54.1097731 126.177635,54.0950855 126.214844,54.0813771 C126.36172,54.0226266 126.464533,53.9149174 126.528179,53.811125 C126.654493,53.5937483 126.618263,53.400851 126.627076,53.4057468 C126.624138,53.3969343 126.628055,53.3871425 126.636868,53.3832258 C126.64568,53.3802883 126.654493,53.384205 126.65841,53.3930176 C126.65841,53.3930176 126.665264,53.4018301 126.677993,53.4184761 C126.689743,53.4361012 126.716181,53.4605806 126.732827,53.5007267 C126.773952,53.575144 126.824869,53.71027 126.795494,53.8943548 C126.771994,54.0735437 126.65841,54.3065871 126.415574,54.4554216 L126.415574,54.4554216 Z M93.2979433,52.912243 C93.3537563,53.1540991 93.0218162,53.4086844 92.5381041,53.4086844 C92.0534129,53.4086844 91.8115568,53.1540991 91.9525579,52.912243 C92.0622254,52.7271791 92.3784987,52.6038031 92.6800844,52.6038031 C92.9816701,52.6038031 93.2538805,52.7271791 93.2979433,52.912243 L93.2979433,52.912243 Z M121.034033,53.4086844 C120.550321,53.4086844 120.218381,53.1540991 120.275173,52.912243 C120.318256,52.7271791 120.590467,52.6038031 120.892052,52.6038031 C121.192659,52.6038031 121.509911,52.7271791 121.619579,52.912243 C121.76058,53.1540991 121.517745,53.4086844 121.034033,53.4086844 L121.034033,53.4086844 Z M87.6510455,50.7345595 C88.3726969,49.9042198 89.5467268,49.4077784 90.4025251,49.4077784 L123.169612,49.4077784 C123.59849,49.3519655 125.023189,49.810219 125.730152,50.4545157 L125.920112,50.8089768 C125.813382,51.2221883 125.406046,51.5531492 124.883167,51.5531492 L88.5479691,51.5531492 C88.0740488,51.5531492 87.6970667,51.2819179 87.5492114,50.9254985 L87.6510455,50.7345595 Z M127.422165,53.2990168 L126.758285,51.4444608 C126.653514,51.1526669 126.521325,50.8804565 126.365636,50.6268503 L126.366616,50.6268503 L126.024884,50.0001788 C125.405066,49.3705698 124.253558,48.9544208 123.425176,48.9544208 L90.1508773,48.9544208 C89.2813706,48.9544208 88.0887364,49.4508621 87.3563141,50.2812018 L87.1457916,50.669934 C87.0831245,50.7737265 87.024374,50.8824148 86.9705194,50.9930615 L86.9607277,51.0097075 L86.962686,51.0097075 C86.9244982,51.0880414 86.8882688,51.1663754 86.8539977,51.2476468 L86.0314913,53.2412456 C85.6936762,54.0617936 86.2508264,54.9851549 87.0841036,54.9851549 L126.348011,54.9851549 C127.15583,54.9851549 127.712001,54.1117315 127.422165,53.2990168 L127.422165,53.2990168 Z M104.828699,39.7276619 C104.932492,39.7276619 105.01768,39.6777241 105.049013,39.6111402 C105.061743,39.5886192 105.066638,39.559244 105.068597,39.5337854 L105.079368,39.4006177 C105.081326,39.3839718 105.079368,39.3653675 105.07643,39.3477423 C105.053909,39.2743043 104.984388,39.2253456 104.876679,39.2253456 C104.733719,39.2253456 104.611322,39.3173879 104.594676,39.4818892 C104.580968,39.6189736 104.664198,39.7276619 104.828699,39.7276619 L104.828699,39.7276619 Z M110.192616,39.8167668 C110.336554,39.8167668 110.455034,39.7521413 110.486368,39.6454113 C110.49518,39.6170152 110.49518,39.5856817 110.491264,39.5572856 L110.466784,39.3947427 C110.462868,39.3663466 110.456013,39.3428465 110.443284,39.3222838 C110.38845,39.2273039 110.26997,39.1509283 110.10449,39.1509283 C109.890051,39.1509283 109.752966,39.2801793 109.778425,39.4877643 C109.799967,39.6669531 109.945864,39.8167668 110.192616,39.8167668 L110.192616,39.8167668 Z M102.318096,39.0353858 C102.336701,38.9433434 102.248575,38.896343 102.074282,38.896343 C101.989094,38.896343 101.941114,38.8992805 101.909781,38.9031972 L101.847114,39.1851994 L101.974406,39.1851994 C102.181012,39.1851994 102.300471,39.1254698 102.318096,39.0353858 L102.318096,39.0353858 Z M112.033463,39.04224 L112.061859,39.171491 L112.104943,39.171491 L112.093193,39.1205739 L112.112776,39.1205739 C112.136276,39.1205739 112.149006,39.126449 112.154881,39.1401574 C112.164672,39.1558242 112.169568,39.1665951 112.176423,39.171491 L112.221465,39.171491 C112.216569,39.1665951 112.210694,39.1597409 112.200902,39.1401574 C112.19111,39.1225323 112.180339,39.1117613 112.161735,39.1078446 L112.160756,39.1068655 C112.181318,39.1019696 112.195027,39.0911987 112.19111,39.0755319 C112.189152,39.0628026 112.17936,39.0539901 112.166631,39.048115 C112.152922,39.04224 112.136276,39.0383233 112.102005,39.0383233 C112.07263,39.0383233 112.04913,39.0402816 112.033463,39.04224 L112.033463,39.04224 Z M111.976671,39.103928 C111.964921,39.0471358 112.015838,39.0011147 112.094172,39.0011147 C112.174464,39.0011147 112.244965,39.0471358 112.258673,39.1049071 C112.271402,39.1616992 112.222444,39.2086996 112.143131,39.2077204 C112.06088,39.2077204 111.9894,39.1616992 111.976671,39.103928 L111.976671,39.103928 Z M112.10886,39.0990321 C112.13236,39.0990321 112.149985,39.093157 112.147047,39.0794486 C112.145089,39.0676985 112.130401,39.0598651 112.103964,39.0598651 C112.092214,39.0598651 112.085359,39.0608443 112.081443,39.0618235 L112.089276,39.0990321 L112.10886,39.0990321 Z M101.281151,39.9450386 C101.368297,39.9548304 101.513215,39.9636429 101.711008,39.9636429 C102.06449,39.9636429 102.2897,39.9215384 102.43266,39.846142 C102.555057,39.7805373 102.645141,39.6894741 102.666682,39.5719732 C102.696058,39.4113887 102.569744,39.3027003 102.379784,39.2654917 L102.379784,39.2625542 C102.584432,39.2086996 102.69312,39.1088238 102.712704,39.003073 C102.733266,38.8924263 102.664724,38.8111549 102.556036,38.767092 C102.440493,38.716175 102.30145,38.7005082 102.069386,38.7005082 C101.877468,38.7005082 101.674779,38.7122583 101.571966,38.7249875 L101.281151,39.9450386 Z M102.797892,39.3301172 L102.686266,39.9509137 L103.087727,39.9509137 L103.164103,39.4779725 C103.16802,39.4554515 103.173895,39.4339097 103.181728,39.4153054 C103.221874,39.3281589 103.327625,39.2733251 103.471564,39.2733251 C103.514647,39.2733251 103.545002,39.2762626 103.575356,39.2801793 L103.613544,39.0206981 C103.586127,39.0177606 103.568502,39.0158023 103.533252,39.0158023 C103.411834,39.0158023 103.253208,39.0696569 103.168999,39.199887 L103.158228,39.199887 L103.169978,39.0373441 L102.840975,39.0373441 C102.834121,39.1127405 102.821392,39.1979287 102.797892,39.3301172 L102.797892,39.3301172 Z M103.625294,39.9509137 L104.025776,39.9509137 L104.138381,39.0373441 L103.752587,39.0373441 L103.625294,39.9509137 Z M103.777066,38.7945089 C103.766295,38.8689261 103.835816,38.9296349 103.957234,38.9296349 C104.086485,38.9296349 104.171673,38.8689261 104.180486,38.7945089 C104.18734,38.7200917 104.119777,38.6623204 103.99738,38.6623204 C103.874983,38.6623204 103.786858,38.7200917 103.777066,38.7945089 L103.777066,38.7945089 Z M104.687698,39.9421011 C104.835553,39.9421011 104.962846,39.8980383 105.046076,39.8206835 L105.050972,39.8206835 L105.046076,39.8804131 C105.031388,40.0576437 104.879616,40.1320609 104.688677,40.1320609 C104.533968,40.1320609 104.396883,40.0948523 104.319529,40.059602 L104.213778,40.2887288 C104.326383,40.3376875 104.502634,40.3641252 104.676927,40.3641252 C104.869824,40.3641252 105.068597,40.3357291 105.216452,40.2436868 C105.37312,40.1457693 105.43285,39.9949765 105.4446,39.8138293 L105.476912,39.3027003 C105.485725,39.1685535 105.495517,39.0951154 105.504329,39.0373441 L105.170431,39.0373441 L105.148889,39.1430949 L105.143993,39.1430949 C105.086222,39.0696569 104.984388,39.0177606 104.814012,39.0177606 C104.50753,39.0177606 104.230424,39.1979287 104.196153,39.4897226 C104.164819,39.7540996 104.369466,39.9421011 104.687698,39.9421011 L104.687698,39.9421011 Z M105.651205,39.9509137 L106.051688,39.9509137 L106.07323,39.4006177 C106.074209,39.3800551 106.077146,39.3555757 106.088896,39.3389298 C106.118272,39.2870335 106.184855,39.2400332 106.28669,39.2400332 C106.432587,39.2400332 106.486441,39.3213046 106.484483,39.4388055 L106.473712,39.9509137 L106.874194,39.9509137 L106.876152,39.4094303 C106.878111,39.138199 106.691089,39.0177606 106.445316,39.0177606 C106.373836,39.0177606 106.303336,39.0295107 106.243606,39.0510525 C106.181918,39.0725944 106.130022,39.1029488 106.088896,39.1430949 L106.083021,39.1430949 L106.102605,38.6466536 L105.723664,38.6466536 L105.651205,39.9509137 Z M106.948611,39.2400332 L107.115071,39.2400332 L107.117029,39.6111402 C107.118008,39.7423496 107.155217,39.8324336 107.229634,39.8882465 C107.296218,39.9362261 107.404907,39.969518 107.534158,39.969518 C107.644804,39.969518 107.741742,39.9577679 107.79168,39.9450386 L107.780909,39.7237452 C107.74468,39.7296203 107.719221,39.7315786 107.663409,39.7315786 C107.545908,39.7315786 107.505761,39.6796824 107.503803,39.5680565 L107.49597,39.2400332 L107.775034,39.2400332 L107.767201,39.0373441 L107.491074,39.0373441 L107.486178,38.8023423 L107.112133,38.8748012 L107.113113,39.0373441 L106.948611,39.0373441 L106.948611,39.2400332 Z M108.745396,39.6111402 C108.756167,39.7403912 108.625937,39.8304752 108.392893,39.8304752 C108.235246,39.8304752 108.087391,39.7942458 107.982619,39.7462662 L107.927786,39.8862882 C108.025703,39.9332885 108.213704,39.9714763 108.38506,39.9714763 C108.805126,39.9714763 108.99019,39.7962041 108.973544,39.5984109 C108.957877,39.413347 108.802188,39.3115129 108.504519,39.2312206 C108.263642,39.1646368 108.155933,39.1088238 108.150058,38.9962188 C108.146141,38.9139681 108.229371,38.8160507 108.459477,38.8160507 C108.613208,38.8160507 108.72875,38.8503218 108.782605,38.8728428 L108.833522,38.7475085 C108.758125,38.7181333 108.628874,38.6907164 108.458498,38.6907164 C108.131454,38.6907164 107.920931,38.8268216 107.928765,39.0138439 C107.935619,39.1832411 108.113829,39.2889919 108.400727,39.3634091 C108.638666,39.4260763 108.737563,39.4946185 108.745396,39.6111402 L108.745396,39.6111402 Z M109.046003,38.8043006 C109.050898,38.8561969 109.107691,38.8992805 109.188962,38.8992805 C109.276108,38.8992805 109.325067,38.8561969 109.319192,38.8043006 C109.313317,38.7494669 109.254567,38.7073624 109.174274,38.7073624 C109.092024,38.7073624 109.041107,38.7514252 109.046003,38.8043006 L109.046003,38.8043006 Z M109.412214,39.9509137 L109.319192,39.0461567 L109.09594,39.0461567 L109.180149,39.9509137 L109.412214,39.9509137 Z M109.549298,39.4965768 C109.576715,39.7501829 109.825425,39.946997 110.141699,39.946997 C110.339492,39.946997 110.468743,39.8764964 110.523576,39.7903291 L110.529452,39.7903291 L110.544139,39.8921632 C110.580369,40.1320609 110.418805,40.2250824 110.178907,40.2250824 C110.018323,40.2250824 109.881238,40.1898322 109.791154,40.1477277 L109.74807,40.2838329 C109.858717,40.3357291 110.03301,40.3641252 110.188699,40.3641252 C110.352221,40.3641252 110.530431,40.3337708 110.645973,40.2476035 C110.755641,40.1614361 110.794808,40.0302268 110.760537,39.8138293 L110.676328,39.2850752 C110.658703,39.1803035 110.64989,39.1068655 110.647932,39.0461567 L110.450138,39.0461567 L110.462868,39.1783452 L110.456993,39.1783452 C110.390409,39.1049071 110.265074,39.0275524 110.051614,39.0275524 C109.768633,39.0275524 109.516006,39.194012 109.549298,39.4965768 L109.549298,39.4965768 Z M110.830058,39.0461567 C110.849641,39.1186156 110.864329,39.1910745 110.880975,39.284096 L110.99358,39.9509137 L111.225644,39.9509137 L111.126748,39.3986594 C111.121852,39.3702633 111.121852,39.3428465 111.127727,39.3222838 C111.153186,39.2321998 111.25404,39.1577825 111.399937,39.1577825 C111.611439,39.1577825 111.709356,39.2762626 111.738732,39.4202012 L111.846441,39.9509137 L112.079484,39.9509137 L111.961983,39.4035553 C111.896379,39.1000113 111.617314,39.0275524 111.447917,39.0275524 C111.245228,39.0275524 111.117935,39.1088238 111.071914,39.1910745 L111.066039,39.1910745 L111.027851,39.0461567 L110.830058,39.0461567 Z M111.93065,39.103928 C111.946317,39.177366 112.042276,39.2351373 112.147047,39.2351373 C112.252798,39.2351373 112.32134,39.177366 112.304694,39.103928 C112.288048,39.0314691 112.193069,38.9756561 112.090255,38.9756561 C111.985484,38.9756561 111.914983,39.0314691 111.93065,39.103928 L111.93065,39.103928 Z M87.6206911,49.4430287 L94.3867851,35.1754809 L94.3858059,35.1754809 C94.8421011,34.3128284 95.6254405,33.7781993 96.4783012,33.7781993 L117.170211,33.7781993 C118.085739,33.7781993 118.918037,34.3940999 119.35377,35.3634824 L125.991592,49.2902775 C125.311066,48.8672742 124.509122,48.6293349 123.856013,48.6293349 L89.8718127,48.6293349 C89.1854115,48.6293349 88.3501759,48.9181913 87.6206911,49.4430287 L87.6206911,49.4430287 Z M102.253471,39.5602231 C102.278929,39.4348888 102.132053,39.3859301 101.936218,39.3859301 L101.803051,39.3859301 L101.722758,39.7423496 C101.761925,39.7462662 101.808926,39.7462662 101.876489,39.7462662 C102.056657,39.7462662 102.227033,39.69437 102.253471,39.5602231 L102.253471,39.5602231 Z" id="path-1"></path>
    </defs>
    <g id="Symbols" stroke="none" stroke-width="1" fill="none" fill-rule="evenodd">
        <g id="BAcon/Actions/Manage-BSN-Network">
            <mask id="mask-2" fill="white">
                <use xlink:href="#path-1"></use>
            </mask>
            <use id="Page-1" fill="#050000" xlink:href="#path-1"></use>
            <g id="BAcon/colors/BrightSign-Blue" mask="url(#mask-2)" fill="#31266B">
                <rect id="Rectangle-3" x="0" y="0" width="128" height="128"></rect>
            </g>
        </g>
    </g>
</svg>