<svg xmlns="http://www.w3.org/2000/svg" viewBox="0 -30 185.52 175.55"><defs><style>.cls-1{fill:#37296a;}</style></defs><title>Device Setup</title><g id="Layer_2" data-name="Layer 2"><g id="BA:con"><path id="device_setups" data-name="device setups" class="cls-1" d="M165.13,67.06a1.38,1.38,0,1,1,1.38,1.38A1.38,1.38,0,0,1,165.13,67.06Zm-31.85,1.38a1.38,1.38,0,1,0-1.38-1.38A1.38,1.38,0,0,0,133.27,68.44Zm33.24-5.19a1,1,0,1,0-1-1A1,1,0,0,0,166.51,63.25Zm-31.68,1A1.21,1.21,0,1,0,136,63.08,1.21,1.21,0,0,0,134.83,64.29Zm35.66,0a1.21,1.21,0,1,0-1.21,1.21A1.21,1.21,0,0,0,170.49,64.29Zm2.94,2.77a1.38,1.38,0,1,0-1.38,1.38A1.38,1.38,0,0,0,173.44,67.06Zm-44.14-2.77a1.21,1.21,0,1,0,1.21-1.21A1.21,1.21,0,0,0,129.29,64.29Zm-11.08,0a1.21,1.21,0,1,0,1.21-1.21A1.21,1.21,0,0,0,118.21,64.29Zm-1.56,4.15a1.38,1.38,0,1,0-1.38-1.38A1.38,1.38,0,0,0,116.66,68.44Zm16.62-5.19a1,1,0,1,0-1-1A1,1,0,0,0,133.27,63.25Zm-20.6,1a1.21,1.21,0,1,0,1.21-1.21A1.21,1.21,0,0,0,112.68,64.29Zm-1.56,4.15a1.38,1.38,0,1,0-1.38-1.38A1.38,1.38,0,0,0,111.12,68.44Zm5.54-5.19a1,1,0,1,0-1-1A1,1,0,0,0,116.66,63.25Zm11.08,5.19a1.38,1.38,0,1,0-1.38-1.38A1.38,1.38,0,0,0,127.74,68.44ZM165,64.29a1.21,1.21,0,1,0-1.21,1.21A1.21,1.21,0,0,0,165,64.29Zm-37.22-1a1,1,0,1,0-1-1A1,1,0,0,0,127.74,63.25Zm-5.54,5.19a1.38,1.38,0,1,0-1.38-1.38A1.38,1.38,0,0,0,122.2,68.44Zm1.56-4.15A1.21,1.21,0,1,0,125,63.08,1.21,1.21,0,0,0,123.75,64.29Zm-1.56-1a1,1,0,1,0-1-1A1,1,0,0,0,122.2,63.25Zm24.93-.17a1.19,1.19,0,0,0-.94.47h1.87A1.19,1.19,0,0,0,147.12,63.08Zm-2.77-1.9a1,1,0,1,0,1,1A1,1,0,0,0,144.35,61.17Zm-5.54,0a1,1,0,1,0,1,1A1,1,0,0,0,138.81,61.17Zm13.85,1.9a1.19,1.19,0,0,0-.94.48,10,10,0,0,1,2,.22A1.2,1.2,0,0,0,152.66,63.08Zm-14.79,5,0-.09,0-.17A5.85,5.85,0,0,1,139,65.7l-.22,0a1.38,1.38,0,0,0-.94,2.4Zm13.05-5.86a1,1,0,1,0-1,1A1,1,0,0,0,150.93,62.21Zm-9.35.87a1.21,1.21,0,0,0-1.21,1.21,1.15,1.15,0,0,0,0,.22,6.76,6.76,0,0,1,2.22-.79A1.2,1.2,0,0,0,141.58,63.08Zm14.89-.87a1,1,0,1,0-1,1A1,1,0,0,0,156.47,62.21Zm4.5,1a1,1,0,1,0-1-1A1,1,0,0,0,161,63.25Zm-1.56,1a1.21,1.21,0,1,0-1.21,1.21A1.21,1.21,0,0,0,159.41,64.29ZM114,84.58H5.08C1.41,84.58-1,80.5.44,76.89L4.07,68.1c.15-.36.31-.7.48-1h0l0-.07q.36-.74.77-1.43l.93-1.71A18,18,0,0,1,18.6,58H165.32a18,18,0,0,1,11.47,4.61l1.51,2.76h0A19.26,19.26,0,0,1,180,69l2.93,8.18A5.78,5.78,0,0,1,182.5,82a6.5,6.5,0,0,0-1.85-4.94l-2.57-2.58-2.59-2.59a6.86,6.86,0,0,0-4.82-2A6.72,6.72,0,0,0,166.93,71l-.08.06-.08.06-3.71,2.75a24.4,24.4,0,0,0-4.15-1.67l-.55-2.79h13.39a4.61,4.61,0,0,0,4.58-3.28l-.84-1.56A17.55,17.55,0,0,0,164.19,60H19.72A17.61,17.61,0,0,0,7.59,65.84l-.45.84a4.68,4.68,0,0,0,4.4,2.77H137.61l-.53,2.72-.58.21c-1.1.4-2.23.81-3.41,1.37l-4-2.82-.05,0-.05,0a7.11,7.11,0,0,0-3.95-1.21,6.47,6.47,0,0,0-4.61,1.89l-2.59,2.58-2.59,2.59a6.81,6.81,0,0,0-1.91,3.85l-21.89-.08-62.43.2-20.57.07H6.8a3,3,0,0,1-1.05-.25A2.92,2.92,0,0,1,4.4,79.24,3.55,3.55,0,0,1,4,77.4a2.28,2.28,0,0,0-.36.43,2.68,2.68,0,0,0-.41,1.71,3.48,3.48,0,0,0,1.52,2.57,3.87,3.87,0,0,0,1.88.67c.39,0,.63,0,.93,0h.91l20.57.07,62.43.2,22-.08A6.67,6.67,0,0,0,114,84.58Zm-85.22-7c2.13,0,3.6-1.12,3.35-2.19C32,74.57,30.77,74,29.45,74a3.89,3.89,0,0,0-3.2,1.36C25.62,76.46,26.69,77.58,28.82,77.58ZM72.06,21.8c.11-.47-.53-.66-1.37-.66h-.58l-.34,1.35c.17,0,.37,0,.66,0C71.21,22.5,71.94,22.31,72.06,21.8ZM8.88,59.05,38.09,5.27h0a10.61,10.61,0,0,1,9-5.27h89.33a10.69,10.69,0,0,1,9.43,6h0l28.65,52.5A20.4,20.4,0,0,0,165.32,56H18.6A19.21,19.21,0,0,0,8.88,59.05Zm104.95-39c.07.27.48.49.94.49s.75-.22.68-.49-.48-.49-.93-.49S113.76,19.81,113.83,20.08Zm-4.75-.22a8,8,0,0,1,.22.9l.49,2.51h1l-.43-2.08a.54.54,0,0,1,0-.29,1.15,1.15,0,0,1,1.17-.62,1.32,1.32,0,0,1,1.46,1l.47,2h1L114,21.21a2.13,2.13,0,0,0-2.22-1.42,1.92,1.92,0,0,0-1.63.61h0l-.17-.55Zm-5.53,1.7a2.37,2.37,0,0,0,2.56,1.7,2,2,0,0,0,1.65-.59h0l.07.38c.16.91-.54,1.26-1.58,1.26a4.64,4.64,0,0,1-1.67-.29l-.19.51a5.54,5.54,0,0,0,1.9.3,3.82,3.82,0,0,0,2-.44,1.44,1.44,0,0,0,.5-1.64l-.36-2a6.7,6.7,0,0,1-.12-.9h-.85l.05.5h0a2.47,2.47,0,0,0-1.75-.57C104.5,19.79,103.41,20.42,103.55,21.56ZM103,23.27l-.4-3.41h-1l.36,3.41Zm-1.58-4.32c0,.2.27.36.61.36s.59-.16.57-.36-.28-.36-.63-.36S101.36,18.75,101.38,18.95Zm-1.3,3c0,.49-.52.83-1.52.83a5,5,0,0,1-1.77-.32l-.23.53a5.9,5.9,0,0,0,2,.32c1.81,0,2.61-.66,2.54-1.41s-.74-1.08-2-1.39c-1-.25-1.51-.46-1.53-.89s.34-.68,1.34-.68a4.26,4.26,0,0,1,1.4.21l.22-.47a5.21,5.21,0,0,0-1.62-.22c-1.41,0-2.32.52-2.29,1.22s.8,1,2,1.32C99.62,21.29,100,21.55,100.08,22Zm-7.76-1.4H93V22a1.16,1.16,0,0,0,.48,1,2.54,2.54,0,0,0,1.31.31,5.48,5.48,0,0,0,1.11-.1l0-.83a3.24,3.24,0,0,1-.51,0c-.51,0-.68-.19-.69-.61l0-1.24h1.2l0-.77H94.67l0-.88L93,19.21v.61h-.71Zm-5.6,2.68h1.73l.09-2.07a.42.42,0,0,1,.07-.23,1,1,0,0,1,.86-.37c.63,0,.86.3.85.75l0,1.93H92v-2c0-1-.8-1.48-1.86-1.48a2.93,2.93,0,0,0-.87.13,1.93,1.93,0,0,0-.67.35h0l.08-1.87H87Zm-4.16,0a2.46,2.46,0,0,0,1.54-.46h0l0,.23c-.06.67-.72.95-1.54.95A4.61,4.61,0,0,1,81,23.68l-.46.87a6.28,6.28,0,0,0,2,.28,5,5,0,0,0,2.33-.45,1.85,1.85,0,0,0,1-1.62L86,20.83a9.49,9.49,0,0,1,.12-1H84.64l-.09.4h0a1.81,1.81,0,0,0-1.42-.48,2.47,2.47,0,0,0-2.67,1.78C80.31,22.53,81.19,23.24,82.56,23.24Zm-3.93-4.33c0,.28.26.51.78.51s.92-.23,1-.51-.26-.5-.79-.5S78.68,18.63,78.63,18.91ZM78,23.27H79.7l.49-3.44H78.53ZM74.4,20.93l-.48,2.34h1.73L76,21.49a.92.92,0,0,1,.08-.24,1.35,1.35,0,0,1,1.25-.54,3.84,3.84,0,0,1,.45,0l.16-1-.35,0a2,2,0,0,0-1.57.7h0l.05-.61H74.59A10.06,10.06,0,0,1,74.4,20.93Zm-6.55,2.32c.38,0,1,.07,1.86.07a7.8,7.8,0,0,0,3.11-.45,1.63,1.63,0,0,0,1-1c.13-.61-.42-1-1.24-1.15h0c.88-.2,1.35-.58,1.43-1s-.2-.72-.68-.89a5.84,5.84,0,0,0-2.1-.25c-.83,0-1.71,0-2.15.09ZM161,68.44a1.38,1.38,0,1,0-1.38-1.38A1.38,1.38,0,0,0,161,68.44ZM114.6,20.06c.1,0,.18,0,.16-.07s-.07-.07-.19-.07h-.1l0,.14Zm-.57,0c-.05-.21.17-.39.51-.39a.71.71,0,0,1,.71.39c.06.22-.16.39-.5.39A.71.71,0,0,1,114,20.08Zm.24-.23.12.49h.18l0-.19h.09c.1,0,.15,0,.18.07a.43.43,0,0,0,.09.12h.19a.47.47,0,0,1-.09-.12.24.24,0,0,0-.17-.12h0c.09,0,.15-.06.13-.12a.17.17,0,0,0-.11-.1.7.7,0,0,0-.28,0Zm-41.94,0c.08-.34-.3-.52-1.05-.52-.37,0-.58,0-.71,0l-.27,1.06h.55C71.74,20.38,72.26,20.16,72.34,19.82Zm34,2.95a1.26,1.26,0,0,0,1.27-.65.68.68,0,0,0,0-.33l-.11-.61a.61.61,0,0,0-.1-.27,1.71,1.71,0,0,0-1.46-.65c-.92,0-1.52.49-1.41,1.27A1.61,1.61,0,0,0,106.33,22.77Zm-23.16-.34a1.08,1.08,0,0,0,1-.44.7.7,0,0,0,.08-.29l0-.51a.58.58,0,0,0,0-.2.83.83,0,0,0-.86-.46,1.13,1.13,0,0,0-1.22,1C82.1,22,82.46,22.43,83.17,22.43Zm27.95,40.82a1,1,0,1,0-1-1A1,1,0,0,0,111.12,63.25Zm-70.45,1a1.21,1.21,0,1,0,1.21-1.21A1.21,1.21,0,0,0,40.66,64.29Zm4-1a1,1,0,1,0-1-1A1,1,0,0,0,44.64,63.25Zm0,5.19a1.38,1.38,0,1,0-1.38-1.38A1.38,1.38,0,0,0,44.64,68.44Zm-5.54,0a1.38,1.38,0,1,0-1.38-1.38A1.38,1.38,0,0,0,39.11,68.44Zm0-5.19a1,1,0,1,0-1-1A1,1,0,0,0,39.11,63.25Zm-4,1a1.21,1.21,0,1,0,1.21-1.21A1.21,1.21,0,0,0,35.12,64.29Zm16.62,0A1.21,1.21,0,1,0,53,63.08,1.21,1.21,0,0,0,51.74,64.29Zm-5.54,0a1.21,1.21,0,1,0,1.21-1.21A1.21,1.21,0,0,0,46.2,64.29ZM33.57,68.44a1.38,1.38,0,1,0-1.38-1.38A1.38,1.38,0,0,0,33.57,68.44Zm22.16,0a1.38,1.38,0,1,0-1.38-1.38A1.38,1.38,0,0,0,55.72,68.44Zm0-5.19a1,1,0,1,0-1-1A1,1,0,0,0,55.72,63.25Zm-5.54,5.19a1.38,1.38,0,1,0-1.38-1.38A1.38,1.38,0,0,0,50.18,68.44Zm0-5.19a1,1,0,1,0-1-1A1,1,0,0,0,50.18,63.25Zm-20.6,1a1.21,1.21,0,1,0,1.21-1.21A1.21,1.21,0,0,0,29.58,64.29Zm-7.1-1a1,1,0,1,0-1-1A1,1,0,0,0,22.49,63.25Zm11.08,0a1,1,0,1,0-1-1A1,1,0,0,0,33.57,63.25Zm-16.62,0a1,1,0,1,0-1-1A1,1,0,0,0,16.95,63.25Zm0,5.19a1.38,1.38,0,1,0-1.38-1.38A1.38,1.38,0,0,0,16.95,68.44ZM10,67.06a1.38,1.38,0,1,0,1.38-1.38A1.38,1.38,0,0,0,10,67.06ZM13,64.29a1.21,1.21,0,1,0,1.21-1.21A1.21,1.21,0,0,0,13,64.29Zm5.54,0a1.21,1.21,0,1,0,1.21-1.21A1.21,1.21,0,0,0,18.51,64.29Zm38.78,0a1.21,1.21,0,1,0,1.21-1.21A1.21,1.21,0,0,0,57.28,64.29ZM28,68.44a1.38,1.38,0,1,0-1.38-1.38A1.38,1.38,0,0,0,28,68.44Zm-4-4.15a1.21,1.21,0,1,0,1.21-1.21A1.21,1.21,0,0,0,24,64.29Zm4-1a1,1,0,1,0-1-1A1,1,0,0,0,28,63.25Zm-5.54,5.19a1.38,1.38,0,1,0-1.38-1.38A1.38,1.38,0,0,0,22.49,68.44Zm77.55,0a1.38,1.38,0,1,0-1.38-1.38A1.38,1.38,0,0,0,100,68.44Zm-9.52-4.15a1.21,1.21,0,1,0,1.21-1.21A1.21,1.21,0,0,0,90.52,64.29ZM89,68.44a1.38,1.38,0,1,0-1.38-1.38A1.38,1.38,0,0,0,89,68.44Zm-5.54,0A1.38,1.38,0,1,0,82,67.06,1.38,1.38,0,0,0,83.42,68.44ZM94.5,63.25a1,1,0,1,0-1-1A1,1,0,0,0,94.5,63.25Zm-9.52,1a1.21,1.21,0,1,0,1.21-1.21A1.21,1.21,0,0,0,85,64.29Zm4-1a1,1,0,1,0-1-1A1,1,0,0,0,89,63.25Zm5.54,5.19a1.38,1.38,0,1,0-1.38-1.38A1.38,1.38,0,0,0,94.5,68.44Zm11.08-5.19a1,1,0,1,0-1-1A1,1,0,0,0,105.58,63.25Zm-4,1a1.21,1.21,0,1,0,1.21-1.21A1.21,1.21,0,0,0,101.6,64.29Zm4,4.15a1.38,1.38,0,1,0-1.38-1.38A1.38,1.38,0,0,0,105.58,68.44ZM100,63.25a1,1,0,1,0-1-1A1,1,0,0,0,100,63.25Zm-4,1a1.21,1.21,0,1,0,1.21-1.21A1.21,1.21,0,0,0,96.06,64.29Zm11.08,0a1.21,1.21,0,1,0,1.21-1.21A1.21,1.21,0,0,0,107.14,64.29Zm-45.87-1a1,1,0,1,0-1-1A1,1,0,0,0,61.26,63.25Zm5.54,5.19a1.38,1.38,0,1,0-1.38-1.38A1.38,1.38,0,0,0,66.8,68.44Zm1.56-4.15a1.21,1.21,0,1,0,1.21-1.21A1.21,1.21,0,0,0,68.36,64.29Zm-1.56-1a1,1,0,1,0-1-1A1,1,0,0,0,66.8,63.25Zm-5.54,5.19a1.38,1.38,0,1,0-1.38-1.38A1.38,1.38,0,0,0,61.26,68.44Zm11.08-5.19a1,1,0,1,0-1-1A1,1,0,0,0,72.34,63.25Zm11.08,0a1,1,0,1,0-1-1A1,1,0,0,0,83.42,63.25Zm-20.6,1A1.21,1.21,0,1,0,64,63.08,1.21,1.21,0,0,0,62.82,64.29Zm16.62,0a1.21,1.21,0,1,0,1.21-1.21A1.21,1.21,0,0,0,79.44,64.29Zm-1.56,4.15a1.38,1.38,0,1,0-1.38-1.38A1.38,1.38,0,0,0,77.88,68.44Zm-5.54,0A1.38,1.38,0,1,0,71,67.06,1.38,1.38,0,0,0,72.34,68.44Zm1.56-4.15a1.21,1.21,0,1,0,1.21-1.21A1.21,1.21,0,0,0,73.9,64.29Zm4-1a1,1,0,1,0-1-1A1,1,0,0,0,77.88,63.25ZM183.4,104.86v-3.51c0-1.29.55-2.4-.74-2.77l-4.31-.92a2.63,2.63,0,0,1-2.1-2,43.64,43.64,0,0,0-1.7-4.44,3.2,3.2,0,0,1,.26-3.14L178,83.42a2.78,2.78,0,0,0-.17-3.51l-2.58-2.59-2.58-2.59a2.79,2.79,0,0,0-3.51-.36l-4.25,3.15a3.16,3.16,0,0,1-3.14.2,20,20,0,0,0-4.62-1.81,2.92,2.92,0,0,1-2-2.33l-.92-4.66c-.18-1.29-1.29-1.37-2.59-1.37h-7c-1.29,0-2.4.07-2.77,1.37l-.92,4.79a2.4,2.4,0,0,1-2,2.08,44.38,44.38,0,0,0-4.44,1.78,3.2,3.2,0,0,1-3.14-.22l-4.44-3.16a2.78,2.78,0,0,0-3.51.18l-2.59,2.58-2.59,2.59a2.8,2.8,0,0,0-.37,3.51l3.14,4.44a3.16,3.16,0,0,1,.17,3.14,45.57,45.57,0,0,0-1.88,4.44,3.1,3.1,0,0,1-2.47,2L110,98c-1.29.19-3.64,1.29-3.64,2.59v7c0,1.29,2.35,2.4,3.64,2.77l6.2.92a2.92,2.92,0,0,1,2.51,2,46.81,46.81,0,0,0,2,4.44,3.18,3.18,0,0,1-.11,3.14l-3.11,4.44a2.78,2.78,0,0,0,.2,3.51l2.6,2.59,2.59,2.59a2.8,2.8,0,0,0,3.52.37l4.44-3.13a3.16,3.16,0,0,1,3.14-.17,29.59,29.59,0,0,0,4.25,1.89,3.11,3.11,0,0,1,2,2.48l.92,6.51c.18,1.29,1.29,3.52,2.59,3.52h7c1.29,0,2.4-2.22,2.77-3.52l.92-6a3.37,3.37,0,0,1,2-2.65,46.63,46.63,0,0,0,4.44-2,3.18,3.18,0,0,1,3.14.12l4.44,3.11a2.78,2.78,0,0,0,3.51-.2l2.59-2.6,2.59-2.59a2.8,2.8,0,0,0,.37-3.51l-3-4.25a3.16,3.16,0,0,1-.2-3.14,44.79,44.79,0,0,0,1.82-4.44,2.93,2.93,0,0,1,2.34-2l4-.92c1.29-.19.74-1.29.74-2.59ZM159,115.22a15.82,15.82,0,1,1-.19-22.37A15.79,15.79,0,0,1,159,115.22Z"/></g></g></svg>
